<?xml version="1.0" encoding="UTF-8" standalone="no"?>
<!-- Created with Inkscape (http://www.inkscape.org/) -->

<svg
   xmlns:dc="http://purl.org/dc/elements/1.1/"
   xmlns:cc="http://creativecommons.org/ns#"
   xmlns:rdf="http://www.w3.org/1999/02/22-rdf-syntax-ns#"
   xmlns:svg="http://www.w3.org/2000/svg"
   xmlns="http://www.w3.org/2000/svg"
   xmlns:sodipodi="http://sodipodi.sourceforge.net/DTD/sodipodi-0.dtd"
   xmlns:inkscape="http://www.inkscape.org/namespaces/inkscape"
   width="159.69745mm"
   height="159.69745mm"
   viewBox="0 0 565.8571 565.8571"
   id="svg2"
   version="1.1"
   inkscape:version="0.91 r13725"
   sodipodi:docname="logo.svg">
  <defs
     id="defs4" />
  <sodipodi:namedview
     id="base"
     pagecolor="#ffffff"
     bordercolor="#666666"
     borderopacity="1.0"
     inkscape:pageopacity="0.0"
     inkscape:pageshadow="2"
     inkscape:zoom="0.49497475"
     inkscape:cx="625.87154"
     inkscape:cy="321.45763"
     inkscape:document-units="px"
     inkscape:current-layer="g3347"
     showgrid="false"
     fit-margin-top="0"
     fit-margin-left="0"
     fit-margin-right="0"
     fit-margin-bottom="0"
     inkscape:window-width="1920"
     inkscape:window-height="1016"
     inkscape:window-x="0"
     inkscape:window-y="30"
     inkscape:window-maximized="1" />
  <metadata
     id="metadata7">
    <rdf:RDF>
      <cc:Work
         rdf:about="">
        <dc:format>image/svg+xml</dc:format>
        <dc:type
           rdf:resource="http://purl.org/dc/dcmitype/StillImage" />
        <dc:title></dc:title>
      </cc:Work>
    </rdf:RDF>
  </metadata>
  <g
     inkscape:label="Layer 1"
     inkscape:groupmode="layer"
     id="layer1"
     transform="translate(-95.118682,-217.25256)">
    <g
       id="g3347"
       transform="translate(176.67411,-141.71436)">
      <rect
         style="color:#000000;clip-rule:nonzero;display:inline;overflow:visible;visibility:visible;opacity:1;isolation:auto;mix-blend-mode:normal;color-interpolation:sRGB;color-interpolation-filters:linearRGB;solid-color:#000000;solid-opacity:1;fill:#3e3748;fill-opacity:1;fill-rule:nonzero;stroke:#2d3b42;stroke-width:3;stroke-linecap:butt;stroke-linejoin:miter;stroke-miterlimit:4;stroke-dasharray:none;stroke-dashoffset:0;stroke-opacity:1;color-rendering:auto;image-rendering:auto;shape-rendering:auto;text-rendering:auto;enable-background:accumulate"
         id="rect3401"
         width="562.85712"
         height="562.85712"
         x="-80.055428"
         y="360.46692"
         ry="80.732269" />
      <path
         style="fill:#d45500"
         d="m 128.81592,837.33376 c -1.60446,-1.60443 -2.5657,-3.57945 -2.27786,-4.68016 0.27389,-1.04729 11.19559,-18.39262 24.27044,-38.54517 39.1932,-60.40909 47.11187,-72.84494 47.11495,-73.99136 0.002,-1.00776 -9.7952,-7.55958 -10.21389,-6.83001 -0.10196,0.17754 -2.97065,4.08795 -6.37491,8.68972 -7.70982,10.42173 -17.34863,18.54909 -27.92748,23.54816 -7.84918,3.70921 -8.59544,3.84874 -20.63085,3.85808 -12.37429,0.0109 -12.57048,-0.0304 -21.71669,-4.40642 -15.04065,-7.19648 -23.666913,-16.49502 -19.327864,-20.83402 2.240224,-2.24029 4.179814,-1.47195 10.220024,4.04854 10.89761,9.9597 26.04787,14.7579 38.1174,12.07198 10.57108,-2.35257 18.51254,-7.08084 27.45383,-16.34594 9.40894,-9.7497 13.24443,-15.89042 10.84965,-17.37052 -0.83529,-0.51621 -12.62973,-8.15505 -26.20987,-16.97518 -18.27712,-11.8707 -24.86051,-16.71121 -25.34303,-18.63371 -0.75333,-3.00154 -2.92852,0.61615 31.46903,-52.33832 13.77146,-21.20091 28.35588,-43.67769 32.40985,-49.94838 4.05395,-6.27069 14.17939,-21.82623 22.50096,-34.56786 8.32158,-12.74163 15.10449,-23.49139 15.07313,-23.88836 -0.0314,-0.39696 -4.93704,-3.8608 -10.90153,-7.69743 -7.02313,-4.51759 -10.73188,-7.56048 -10.5249,-8.63527 0.17892,-0.92906 3.42419,-2.7999 7.37256,-4.25013 3.87913,-1.42481 11.45058,-4.21601 16.82546,-6.20268 5.37488,-1.98665 18.07915,-6.62068 28.2317,-10.29783 10.15255,-3.67715 22.85681,-8.31677 28.23169,-10.31027 43.70021,-16.20808 39.94411,-15.0734 41.90037,-12.65753 1.32936,1.6417 1.95908,5.67952 2.51111,16.10152 0.40523,7.65068 1.18566,20.01815 1.73428,27.48327 0.54862,7.46511 1.53012,22.12387 2.1811,32.57503 0.65098,10.45115 1.6486,24.70538 2.21693,31.67606 1.4529,17.81979 1.3613,21.52983 -0.53159,21.52983 -0.86072,0 -6.21913,-2.97797 -11.90758,-6.6177 -5.68845,-3.63973 -10.81089,-6.44932 -11.38318,-6.24355 -0.88793,0.31928 -19.58518,28.75591 -59.50325,90.49841 -5.01945,7.76371 -15.57727,24.02506 -23.46184,36.13628 -23.4796,36.06632 -40.7366,62.65211 -67.11338,103.39348 -23.1902,35.81929 -28.70949,43.43338 -31.48428,43.43338 -0.59105,0 -2.32377,-1.24915 -3.85049,-2.77594 z m 74.11726,-145.0172 c 8.89183,-1.85732 16.20805,-3.44535 16.25826,-3.52896 0.0502,-0.0836 3.38428,-5.20586 7.40903,-11.38298 4.02475,-6.17713 7.11152,-11.43734 6.85949,-11.68938 -0.43997,-0.43996 -13.54986,2.0289 -29.56149,5.56703 -10.39405,2.29682 -26.93158,5.73596 -34.47524,7.16948 -3.43395,0.65255 -6.2155,1.74503 -6.18122,2.42773 0.0671,1.33731 20.31863,14.76212 22.31782,14.79459 0.6635,0.0109 8.4815,-1.50008 17.37335,-3.35751 z m -38.0729,-39.57029 c 7.138,-1.52435 22.01774,-4.67479 33.0661,-7.00098 11.04837,-2.32618 25.95145,-5.49705 33.11795,-7.04639 7.16651,-1.54934 15.43588,-3.28861 18.37637,-3.86505 2.9405,-0.57643 5.44858,-1.16678 5.57353,-1.31186 1.34879,-1.56623 14.59723,-22.46712 14.59723,-23.02876 0,-0.41415 -1.58804,-0.44816 -3.52897,-0.0756 -4.27956,0.82156 -17.11221,3.58357 -23.07398,4.96626 -2.38883,0.55404 -18.51347,3.96579 -35.83253,7.58168 -17.31906,3.61589 -34.00611,7.1114 -37.08232,7.76782 -5.57652,1.18992 -5.61441,1.22676 -12.75856,12.40753 -3.94099,6.16777 -7.16543,11.47572 -7.16543,11.79548 0,0.89709 0.83893,0.77219 14.71061,-2.19016 z m 34.15194,-54.8663 c 5.67348,-1.22444 16.91187,-3.62773 24.97419,-5.34065 8.06232,-1.71291 22.72109,-4.82789 32.57503,-6.92217 9.85395,-2.09428 21.64697,-4.63263 26.20671,-5.64076 l 8.29045,-1.83296 6.09686,-9.48329 c 3.35327,-5.21581 6.09686,-9.77752 6.09686,-10.13716 0,-0.35962 -0.86606,-1.11737 -1.92458,-1.68387 -2.13836,-1.14442 -3.05133,-0.99994 -30.10753,4.76459 -10.15255,2.16308 -25.05563,5.33475 -33.11795,7.04815 -32.98764,7.01051 -36.27697,7.74655 -37.2179,8.32808 -1.01572,0.62775 -14.90215,21.7282 -14.90215,22.64383 0,0.87654 2.33912,0.56349 13.03001,-1.74379 z m 48.21787,-57.93877 c 10.09657,-2.11345 18.6068,-4.09201 18.91162,-4.39682 0.69021,-0.69021 0.94958,-0.47606 -6.86568,-5.66862 -14.31842,-9.51334 -18.72634,-12.25812 -19.65742,-12.24053 -0.82675,0.0156 -16.45636,23.37312 -17.67814,26.4189 -0.4906,1.22303 0.80352,1.01256 25.28962,-4.11293 z M 95.26952,757.92191 c -1.33347,-11.05661 -1.26335,-11.70279 1.30953,-12.07057 2.83114,-0.40469 3.3551,1.05533 3.8218,10.64911 0.31822,6.54117 0.1708,7.08246 -2.01361,7.39355 -2.1171,0.30154 -2.43441,-0.30631 -3.11772,-5.97209 z M 70.311822,755.3676 c -0.650763,-1.05294 0.824419,-3.30561 7.337833,-11.20516 1.624788,-1.97057 3.339701,-2.95879 4.684974,-2.69971 3.141112,0.60492 2.633192,2.40241 -2.556521,9.04728 -4.464854,5.71681 -7.858901,7.45849 -9.466286,4.85759 z M 58.030159,731.40367 c 0.336945,-2.38308 1.054563,-2.6692 8.901101,-3.54873 6.86314,-0.76942 8.716214,-0.66301 9.461791,0.54292 1.732732,2.80254 -1.779107,4.51001 -10.416224,5.06433 -8.264416,0.53032 -8.311009,0.51827 -7.946668,-2.05852 z m 54.501211,-4.78137 c -1.04,-2.71013 0.81795,-3.77599 8.72961,-5.00765 7.96427,-1.23991 10.42951,-0.82382 10.42951,1.76057 0,2.15984 -3.17364,3.31516 -11.68556,4.25419 -5.71379,0.63033 -6.90694,0.46952 -7.47356,-1.00711 z M 70.578546,711.84627 c -5.02704,-4.43129 -6.027821,-5.83397 -5.02476,-7.04251 1.838638,-2.21542 2.810146,-1.92562 8.404716,2.50709 6.488469,5.14099 7.769949,6.69992 7.049921,8.57635 -1.052695,2.74325 -4.051845,1.5813 -10.429877,-4.04093 z m 34.376284,0.7236 c -0.85734,-2.23421 9.09123,-14.916 11.35868,-14.47928 3.19931,0.6161 2.46106,3.47087 -2.53922,9.81877 -4.89517,6.21445 -7.66208,7.67652 -8.81946,4.66051 z m -14.973636,-3.69195 c -0.357522,-0.57842 -0.962407,-4.74705 -1.344187,-9.26347 -0.603822,-7.14316 -0.452261,-8.30446 1.16471,-8.92501 3.030463,-1.16282 3.867203,0.83229 4.154913,9.90715 0.23042,7.26825 -0.005,8.65388 -1.52641,8.96508 -0.989436,0.20251 -2.091493,-0.10532 -2.449026,-0.68375 z"
         id="path3349"
         inkscape:connector-curvature="0" />
    </g>
  </g>
</svg>
